<?xml version="1.0" encoding="UTF-8" standalone="no"?>
<!-- Generator: Adobe Illustrator 10.0, SVG Export Plug-In . SVG Version: 3.0.0 Build 77)  -->

<svg
   xmlns:i="http://ns.adobe.com/AdobeIllustrator/10.0/"
   xmlns:dc="http://purl.org/dc/elements/1.1/"
   xmlns:cc="http://creativecommons.org/ns#"
   xmlns:rdf="http://www.w3.org/1999/02/22-rdf-syntax-ns#"
   xmlns:svg="http://www.w3.org/2000/svg"
   xmlns="http://www.w3.org/2000/svg"
   xmlns:sodipodi="http://sodipodi.sourceforge.net/DTD/sodipodi-0.dtd"
   xmlns:inkscape="http://www.inkscape.org/namespaces/inkscape"
   i:rulerOrigin="0 0"
   i:viewOrigin="235 572"
   space="preserve"
   i:pageBounds="0 792 612 0"
   viewBox="0 0 128.42782 247.02132"
   enable-background="new 0 0 140.844 353.224"
   overflow="visible"
   id="svg2"
   version="1.1"
   inkscape:version="0.91 r13725"
   sodipodi:docname="Gerald-G-Ice-Cream-Cones-FF-Menu-8.svg"
   width="128.42781"
   height="247.02132"
   style="overflow:visible">
  <defs
     id="defs103">
    <inkscape:perspective
       sodipodi:type="inkscape:persp3d"
       inkscape:vp_x="0 : 0.50000001 : 1"
       inkscape:vp_y="0 : 2.8310647 : 0"
       inkscape:vp_z="1.0000001 : 0.50000001 : 1"
       inkscape:persp3d-origin="0.50000004 : 0.33333332 : 1"
       id="perspective4404" />
  </defs>
  <sodipodi:namedview
     pagecolor="#ffffff"
     bordercolor="#666666"
     borderopacity="1"
     objecttolerance="10"
     gridtolerance="10"
     guidetolerance="10"
     inkscape:pageopacity="0"
     inkscape:pageshadow="2"
     inkscape:window-width="1344"
     inkscape:window-height="791"
     id="namedview101"
     showgrid="false"
     showguides="false"
     inkscape:zoom="1.6674971"
     inkscape:cx="-27.741531"
     inkscape:cy="138.93071"
     inkscape:window-x="0"
     inkscape:window-y="0"
     inkscape:window-maximized="1"
     inkscape:current-layer="svg2"
     fit-margin-top="0"
     fit-margin-left="0"
     fit-margin-right="0"
     fit-margin-bottom="0" />
  <g
     id="g4406"
     transform="translate(-6.1093953,-106.2135)">
    <path
       style="clip-rule:evenodd;fill:#ffffff;fill-rule:evenodd"
       inkscape:connector-curvature="0"
       id="path7"
       i:knockout="Off"
       d="m 70.397,133.62 c 27.88,0 50.507,18.741 50.507,41.832 0,23.092 -22.627,41.832 -50.507,41.832 -27.88,0 -50.508,-18.74 -50.508,-41.832 0.004,-23.09 22.632,-41.83 50.512,-41.83" />
    <g
       id="g4378">
      <path
         d="m 76.842,351.93 49.752,-190.3 -99.937,-0.36 50.189,190.66 z"
         i:knockout="Off"
         stroke-miterlimit="10"
         id="path9"
         inkscape:connector-curvature="0"
         style="clip-rule:evenodd;fill:#a16121;fill-rule:evenodd;stroke:#000000;stroke-width:0.036;stroke-miterlimit:10" />
      <path
         d="m 75.041,185.36 c -0.469,-5.185 -0.035,-8.964 1.297,-11.772 1.367,-2.808 4.57,-5.976 6.551,-4.788 1.801,1.152 2.484,9 4.824,11.736 2.34,2.592 7.703,1.979 9.145,4.392 1.26,2.412 -1.477,6.588 -0.865,10.008 0.613,3.313 4.105,6.841 4.789,10.044 0.611,3.097 -1.764,4.429 -0.9,8.713 0.793,4.212 4.535,11.951 5.688,16.56 1.08,4.5 1.369,7.992 0.865,10.476 l -5.221,18.324 c -1.297,-5.976 -2.268,-11.844 -3.061,-17.892 -0.828,-6.229 -0.576,-12.708 -1.727,-18.324 -1.332,-5.544 -4.248,-11.088 -5.689,-14.832 -1.512,-3.815 -0.432,-4.104 -3.023,-7.812 -2.671,-3.83 -6.847,-8.72 -12.679,-14.84 z"
         i:knockout="Off"
         id="path11"
         inkscape:connector-curvature="0"
         style="clip-rule:evenodd;fill:#804000;fill-rule:evenodd" />
      <path
         d="m 52.361,161.81 c 1.404,7.776 2.664,19.224 3.924,34.884 1.26,15.731 2.7,42.66 3.492,58.428 0.684,15.624 0.972,26.784 0.864,34.452 l 1.764,6.516 c 1.188,-6.983 1.764,-17.748 1.728,-32.688 -0.108,-15.156 -0.828,-39.564 -2.16,-56.7 -1.476,-17.172 -3.384,-32.004 -6.12,-45.324 -1.152,0.14 -2.304,0.29 -3.492,0.43 z"
         i:knockout="Off"
         id="path13"
         inkscape:connector-curvature="0"
         style="clip-rule:evenodd;fill:#ffc080;fill-rule:evenodd" />
      <path
         d="m 39.725,160.95 c 3.096,16.236 5.148,30.672 6.552,43.596 1.26,12.888 1.692,23.977 1.296,33.552 l 2.628,8.28 c 1.368,-10.8 1.512,-23.112 0.432,-37.476 -1.152,-14.437 -3.384,-30.349 -6.984,-48.42 -1.296,0.14 -2.592,0.29 -3.924,0.47 z"
         i:knockout="Off"
         id="path15"
         inkscape:connector-curvature="0"
         style="clip-rule:evenodd;fill:#ffc080;fill-rule:evenodd" />
      <path
         d="m 68.489,166.6 c 1.728,18.936 2.844,37.404 3.492,56.232 0.576,18.864 0.396,39.096 0,55.836 -0.54,16.561 -1.512,30.528 -3.06,42.732 l 1.332,6.084 c 2.159,-11.412 3.708,-25.164 4.788,-41.832 1.043,-16.776 1.656,-36.612 1.297,-57.564 -0.541,-20.952 -1.945,-43.056 -4.357,-67.14 -1.152,1.87 -2.304,3.74 -3.492,5.65 z"
         i:knockout="Off"
         id="path17"
         inkscape:connector-curvature="0"
         style="clip-rule:evenodd;fill:#ffc080;fill-rule:evenodd" />
      <path
         d="m 86.813,210.2 c 0.721,4.932 0.865,13.752 0.432,27.036 -0.611,13.283 -1.906,35.496 -3.059,51.912 -1.117,16.344 -2.27,31.176 -3.457,45.323 l 4.789,-14.796 c 3.348,-30.24 5.328,-54.144 6.084,-72.828 0.684,-18.647 0.107,-31.212 -1.729,-38.376 -0.18,-2.16 -0.611,-3.563 -1.297,-4.355 -0.756,-0.828 -1.727,-0.973 -3.059,-0.433 0.432,2.17 0.864,4.33 1.296,6.53 z"
         i:knockout="Off"
         id="path19"
         inkscape:connector-curvature="0"
         style="clip-rule:evenodd;fill:#ffc080;fill-rule:evenodd" />
      <path
         d="m 79.828,195.36 c -5.939,1.548 -12.635,1.8 -20.483,0.468 -7.813,-1.368 -16.488,-4.032 -26.172,-8.28 l 1.764,4.752 c 4.428,2.232 9.468,3.853 15.264,5.257 5.796,1.224 13.536,2.376 19.188,2.628 5.472,0.18 10.117,-0.217 13.931,-1.332 -1.152,-1.16 -2.302,-2.31 -3.492,-3.5 z"
         i:knockout="Off"
         id="path21"
         inkscape:connector-curvature="0"
         style="clip-rule:evenodd;fill:#ffc080;fill-rule:evenodd" />
      <path
         d="m 37.997,204.11 c 8.532,2.268 17.064,3.815 26.136,4.788 9.035,0.899 17.965,1.188 27.469,0.863 l 0.898,3.061 c -7.596,0.54 -15.84,0.396 -24.875,-0.433 -9.144,-0.899 -18.684,-2.447 -29.196,-4.787 -0.144,-1.15 -0.288,-2.3 -0.432,-3.49 z"
         i:knockout="Off"
         id="path23"
         inkscape:connector-curvature="0"
         style="clip-rule:evenodd;fill:#ffc080;fill-rule:evenodd" />
      <path
         d="m 41.921,219.38 c 7.812,1.764 15.948,2.916 24.84,3.456 8.784,0.468 18.036,0.324 27.899,-0.432 l 0,2.628 c -7.199,0.899 -15.047,1.188 -23.975,0.863 -8.964,-0.396 -18.576,-1.367 -29.232,-3.06 0.144,-1.16 0.288,-2.31 0.468,-3.46 z"
         i:knockout="Off"
         id="path25"
         inkscape:connector-curvature="0"
         style="clip-rule:evenodd;fill:#ffc080;fill-rule:evenodd" />
      <path
         d="m 44.513,232.88 c 3.276,1.908 8.712,3.024 16.992,3.492 8.28,0.396 18.575,0.107 31.86,-0.864 l 0.432,3.061 c -14.508,1.728 -25.56,2.268 -33.588,2.159 -8.064,-0.252 -12.816,-1.367 -14.4,-3.491 -0.432,-1.45 -0.864,-2.89 -1.296,-4.36 z"
         i:knockout="Off"
         id="path27"
         inkscape:connector-curvature="0"
         style="clip-rule:evenodd;fill:#ffc080;fill-rule:evenodd" />
      <path
         d="m 50.201,249.44 c 3.78,1.224 8.964,2.231 16.128,2.628 7.128,0.396 15.659,0.396 26.171,0 l 0,3.924 c -4.967,1.26 -10.799,1.691 -17.891,1.296 -7.128,-0.468 -15.121,-1.729 -24.408,-3.924 l 0,-3.93 z"
         i:knockout="Off"
         id="path29"
         inkscape:connector-curvature="0"
         style="clip-rule:evenodd;fill:#ffc080;fill-rule:evenodd" />
      <path
         d="m 54.557,268.19 c 2.232,1.008 5.58,1.836 10.044,2.628 4.464,0.756 10.764,1.512 16.559,1.728 5.689,0.036 11.449,-0.396 17.424,-1.296 l -0.863,3.492 c -6.695,1.044 -13.393,1.476 -20.484,1.296 -7.127,-0.252 -14.255,-1.08 -21.815,-2.628 -0.289,-1.73 -0.577,-3.45 -0.865,-5.22 z"
         i:knockout="Off"
         id="path31"
         inkscape:connector-curvature="0"
         style="clip-rule:evenodd;fill:#ffc080;fill-rule:evenodd" />
      <path
         d="m 60.209,288.24 c 3.528,1.944 7.992,3.06 13.535,3.492 5.545,0.359 11.988,-0.072 19.621,-1.296 l -2.195,4.355 -0.002,0 c -7.775,1.332 -13.932,2.017 -18.756,1.765 -4.859,-0.181 -8.099,-1.297 -10.007,-3.061 -0.648,-1.8 -0.9,-2.628 -0.9,-2.628 0.072,-0.072 0.972,3.024 0.9,2.628 -0.252,-0.41 -0.936,-2.21 -2.196,-5.24 z"
         i:knockout="Off"
         id="path33"
         inkscape:connector-curvature="0"
         style="clip-rule:evenodd;fill:#ffc080;fill-rule:evenodd" />
      <path
         d="m 67.193,312.26 c 2.016,0.216 4.5,0.396 7.848,0.396 3.24,0 7.164,-0.181 11.771,-0.396 l -1.295,4.356 c -5.328,0.396 -9.396,0.54 -12.205,0.432 -2.916,-0.18 -4.428,-0.576 -4.824,-1.332 -0.431,-1.16 -0.863,-2.31 -1.295,-3.46 z"
         i:knockout="Off"
         id="path35"
         inkscape:connector-curvature="0"
         style="clip-rule:evenodd;fill:#ffc080;fill-rule:evenodd" />
      <path
         d="m 80.945,191.01 c 0.863,0.973 4.572,-0.144 11.412,-3.348 6.875,-3.348 16.451,-8.532 29.303,-16.092 l -1.512,5.184 c -12.564,6.769 -21.635,11.376 -27.791,14.4 -6.156,2.844 -8.965,3.96 -8.713,3.06 -0.902,-1.04 -1.8,-2.12 -2.701,-3.2 z"
         i:knockout="Off"
         id="path41"
         inkscape:connector-curvature="0"
         style="clip-rule:evenodd;fill:#ffc080;fill-rule:evenodd" />
      <path
         d="m 97.289,229.24 c 3.023,-1.08 5.652,-2.196 8.279,-3.492 2.592,-1.368 4.789,-2.772 6.984,-4.356 l -3.492,6.984 c -3.275,1.764 -5.795,3.024 -7.848,3.924 -2.053,0.828 -3.455,1.261 -4.355,1.296 0.145,-1.43 0.29,-2.87 0.434,-4.35 z"
         i:knockout="Off"
         id="path43"
         inkscape:connector-curvature="0"
         style="clip-rule:evenodd;fill:#ffc080;fill-rule:evenodd" />
      <path
         d="m 81.594,161.81 c 2.375,7.02 5.004,14.58 8.279,23.112 3.24,8.496 7.523,20.196 10.908,27.468 3.313,7.129 6.119,12.169 8.711,15.265 l 1.729,-4.824 c -5.111,-8.208 -9.756,-17.136 -13.932,-27.468 -4.248,-10.332 -8.027,-21.528 -11.34,-33.984 -1.438,0.13 -2.88,0.28 -4.354,0.42 z"
         i:knockout="Off"
         id="path45"
         inkscape:connector-curvature="0"
         style="clip-rule:evenodd;fill:#ffc080;fill-rule:evenodd" />
      <path
         d="m 96.209,161.67 c 0.145,1.548 1.549,6.3 4.355,14.4 2.736,8.1 6.877,19.368 12.277,34.092 l 1.547,-5.796 c -4.645,-10.477 -8.135,-19.008 -10.332,-26.136 -2.268,-7.165 -3.24,-12.349 -3.061,-16.128 -1.588,-0.13 -3.172,-0.28 -4.791,-0.42 z"
         i:knockout="Off"
         id="path47"
         inkscape:connector-curvature="0"
         style="clip-rule:evenodd;fill:#ffc080;fill-rule:evenodd" />
      <path
         d="m 90.988,203.18 c 0.613,-0.288 3.385,-1.655 8.172,-4.248 4.824,-2.628 11.664,-6.336 20.664,-11.268 l -1.512,5.184 c -8.172,4.141 -14.4,7.38 -18.971,9.864 -4.572,2.484 -7.309,3.924 -8.354,4.716 0.003,-1.4 0.003,-2.8 0.003,-4.24 z"
         i:knockout="Off"
         id="path49"
         inkscape:connector-curvature="0"
         style="clip-rule:evenodd;fill:#ffc080;fill-rule:evenodd" />
      <path
         d="m 94.014,217.14 c 1.727,-0.792 4.463,-2.16 8.207,-4.248 3.709,-2.124 8.316,-4.86 13.969,-8.208 l -2.125,5.796 c -4.5,2.304 -8.352,4.319 -11.699,6.191 -3.385,1.765 -6.121,3.385 -8.352,4.716 0.006,-1.4 0.006,-2.81 0.006,-4.25 z"
         i:knockout="Off"
         id="path51"
         inkscape:connector-curvature="0"
         style="clip-rule:evenodd;fill:#ffc080;fill-rule:evenodd" />
      <path
         d="m 23.741,160.62 2.88,7.596 0.504,5.004 1.836,2.34 2.916,11.268 c 0,2.521 0.036,4.356 0.504,5.508 0.36,1.08 0.972,1.62 1.836,1.332 l 2.34,9.145 c -0.432,1.26 -0.684,2.124 -0.756,2.88 -0.108,0.684 -0.072,0.756 0.252,1.332 0.252,0.468 0.648,1.044 1.332,1.584 l 2.844,9.684 c -0.756,1.26 -1.152,2.124 -1.044,2.88 0,0.648 0.864,0.864 1.332,1.332 l 1.296,1.296 2.088,8.389 c -0.612,0.359 -0.864,1.151 -0.756,2.088 0.072,0.972 0.828,2.7 1.296,3.672 0.324,0.828 0.72,1.404 1.044,1.584 l 3.42,10.476 c -0.216,0.828 -0.36,1.62 -0.288,2.376 0,0.721 0.18,1.549 0.54,2.089 0.288,0.432 0.72,0.684 1.296,0.756 l 2.376,12.06 c -0.144,-0.9 -0.144,-0.9 0,0 0.072,0.937 0.288,3.853 0.792,5.256 0.396,1.26 1.224,2.053 2.088,2.376 l 2.628,12.853 c -1.116,0.684 -1.512,1.548 -1.044,2.592 0.396,1.044 1.656,2.268 3.636,3.672 l 3.672,17.028 c -0.576,0.504 -0.792,1.296 -0.504,2.376 0.216,1.08 0.828,2.34 1.836,3.924 -0.18,-1.692 0.252,-0.288 1.296,4.212 1.116,4.464 3.528,17.388 5.003,22.536 1.225,5.004 1.693,6.624 2.953,7.632 1.223,0.9 2.664,3.708 4.859,-2.124 2.195,-6.012 5.58,-24.012 7.92,-33.012 2.195,-9.036 3.889,-15.66 5.221,-20.448 0.971,-0.792 1.584,-1.8 1.836,-3.42 0.252,-1.62 0.035,-3.636 -0.504,-6.048 1.367,-5.221 2.447,-8.928 3.383,-11.269 0.865,-2.304 1.477,-1.512 1.836,-2.628 0.289,-1.26 0.432,-2.771 0.289,-4.68 2.16,-6.516 4.031,-12.852 5.76,-19.152 1.656,-6.336 3.42,-15.552 4.176,-18.611 0.684,-3.168 0.684,-3.168 0,0 0.684,0.071 1.297,-0.756 1.836,-2.628 0.469,-1.98 1.045,-6.805 1.332,-8.641 0.18,-1.836 0.18,-2.628 0,-2.376 l 1.836,-6.552 c 0.684,-1.116 1.297,-2.736 2.125,-4.86 0.756,-2.231 1.943,-6.264 2.447,-8.208 0.396,-2.088 0.396,-3.312 0,-3.96 l 8.783,-33.3 -2.627,0 c -1.045,2.52 -2.088,6.012 -3.42,11.016 -1.297,4.896 -2.125,8.604 -4.428,18.36 -2.629,9.756 -6.229,23.868 -10.225,39.564 -3.961,15.588 -9.396,38.735 -13.104,53.496 -3.816,14.615 -6.373,24.3 -9.469,34.056 -3.203,9.647 -6.66,23.616 -9.252,23.868 -2.664,0.036 -2.592,-10.116 -6.192,-22.824 -3.708,-12.888 -11.268,-36.828 -15.48,-53.208 -4.212,-16.416 -5.076,-26.964 -9.684,-44.28 -4.788,-17.388 -10.764,-36.864 -18.36,-59.256 -0.754,-0.02 -1.546,-0.02 -2.338,-0.02 z"
         i:knockout="Off"
         stroke-miterlimit="10"
         id="path55"
         inkscape:connector-curvature="0"
         style="clip-rule:evenodd;fill-rule:evenodd;stroke:#000000;stroke-width:0.036;stroke-miterlimit:10" />
      <path
         d="m 28.385,168.33 c 1.908,1.044 6.372,2.16 13.536,3.492 7.128,1.332 16.812,2.7 29.196,4.392 l 0.864,4.32 c -9.108,-1.044 -16.92,-2.052 -23.976,-3.023 -7.056,-0.973 -12.924,-2.125 -17.892,-3.061 -0.576,-2.02 -1.152,-4.07 -1.728,-6.12 z"
         i:knockout="Off"
         id="path37"
         inkscape:connector-curvature="0"
         style="clip-rule:evenodd;fill:#ffc080;fill-rule:evenodd" />
      <path
         d="m 76.373,178.55 c 3.42,-0.468 8.641,-1.908 15.805,-4.86 7.199,-2.916 16.02,-7.02 27.035,-12.456 l 3.961,0.324 c -8.281,4.644 -16.094,8.532 -24.014,12.096 -7.955,3.42 -15.479,6.372 -23.111,8.712 0.111,-1.25 0.221,-2.51 0.328,-3.81 z"
         i:knockout="Off"
         id="path39"
         inkscape:connector-curvature="0"
         style="clip-rule:evenodd;fill:#ffc080;fill-rule:evenodd" />
      <path
         d="m 109.6,161.06 c 1.332,4.284 2.736,9.036 4.355,14.4 1.619,5.328 3.275,10.98 5.256,17.388 l 1.836,-7.92 c -1.404,-1.044 -2.484,-3.384 -3.637,-7.308 -1.15,-3.924 -2.158,-9.252 -3.023,-16.128 -1.6,-0.15 -3.18,-0.29 -4.8,-0.43 z"
         i:knockout="Off"
         id="path53"
         inkscape:connector-curvature="0"
         style="clip-rule:evenodd;fill:#ffc080;fill-rule:evenodd" />
    </g>
    <g
       transform="matrix(0.45237169,0.41647656,-0.41647656,0.45237169,132.80837,41.389063)"
       id="g4371">
      <path
         d="m 30.761,176.86 5.112,-5.256 c -3.384,-1.836 -6.12,-3.672 -8.496,-5.94 -2.448,-2.376 -3.168,-5.436 -5.616,-7.38 -2.484,-2.016 -8.172,-0.432 -9,-3.996 -0.9,-3.744 1.44,-13.572 3.708,-17.676 2.196,-4.14 6.48,-3.816 9.36,-6.66 2.7,-2.988 2.7,-6.408 7.488,-10.656 4.86,-4.428 10.152,-13.032 21.276,-14.976 10.98,-1.944 33.876,-0.432 44.532,3.42 10.477,3.816 14.939,13.248 18.539,19.116 3.492,5.724 4.393,10.728 2.557,15.156 5.508,2.916 9.359,5.688 11.557,8.316 2.123,2.556 0.648,4.788 1.547,7.38 1.008,2.52 3.24,3.96 4.068,7.776 0.613,3.78 1.656,11.376 -0.18,14.436 -1.98,2.772 -5.725,4.645 -11.232,2.7 -5.543,-2.016 -12.744,-6.732 -21.744,-14.436 -5.652,7.38 -10.295,12.024 -13.787,14.076 -3.637,1.908 -4.176,-3.06 -7.453,-1.979 -3.42,1.08 -7.883,6.372 -12.419,8.64 -4.68,2.124 -10.296,2.412 -14.616,4.356 -4.356,1.872 -8.64,7.452 -10.908,7.02 -2.376,-0.647 -3.24,-3.888 -2.88,-10.26 -5.4,-0.036 -9.036,-1.08 -10.908,-3.276 -1.994,-2.2 -2.03,-5.54 -0.518,-9.9 z"
         i:knockout="Off"
         stroke-miterlimit="10"
         id="path57"
         inkscape:connector-curvature="0"
         style="clip-rule:evenodd;fill-rule:evenodd;stroke:#000000;stroke-width:0.036;stroke-miterlimit:10" />
      <path
         d="m 37.745,170.52 c -2.844,-1.62 -5.616,-3.456 -8.172,-5.94 -2.628,-2.52 -4.932,-6.984 -7.308,-8.676 -2.52,-1.692 -6.012,1.08 -7.128,-1.26 -1.188,-2.412 -0.54,-9.612 0.684,-12.996 1.152,-3.456 4.716,-5.652 6.804,-7.56 2.016,-1.98 3.42,-1.692 5.58,-4.14 1.944,-2.556 3.348,-6.804 6.984,-10.656 3.672,-3.996 9.324,-10.044 15.3,-12.456 6.048,-2.412 13.5,-1.8 20.268,-1.62 6.659,0.108 14.04,1.548 19.368,2.52 5.039,0.936 7.848,0 11.736,2.88 3.996,2.772 8.928,9.504 11.879,13.536 2.809,3.888 4.682,6.84 4.934,10.116 0.035,3.276 -1.225,6.912 -4.068,9.36 -2.881,2.304 -11.34,3.78 -12.744,4.716 -1.369,0.936 0.971,1.332 4.248,0.9 3.131,-0.612 10.404,-4.644 14.436,-4.176 3.889,0.468 7.451,4.32 9.18,6.696 1.549,2.196 -0.035,4.32 0.684,6.516 0.756,2.016 2.701,3.744 3.744,6.3 0.828,2.556 2.197,6.12 1.729,9.036 -0.576,2.844 -1.152,7.74 -4.787,7.74 -3.672,-0.181 -12.24,-5.58 -16.813,-8.28 -4.607,-2.772 -8.027,-5.22 -10.549,-7.776 -5.975,7.488 -10.584,12.132 -13.967,14.076 -3.42,1.908 -2.557,-3.924 -6.301,-2.52 -3.959,1.333 -11.772,8.172 -16.632,10.656 -4.968,2.376 -9.216,2.124 -12.6,3.96 -3.42,1.692 -6.156,6.948 -7.812,6.48 -1.728,-0.576 -2.628,-3.816 -2.556,-9.72 -4.536,0.071 -7.776,-0.54 -9.864,-1.836 -2.16,-1.404 -3.348,-3.492 -2.736,-6.12 0.687,-2.66 2.667,-5.87 6.483,-9.76 z"
         i:knockout="Off"
         stroke-miterlimit="10"
         id="path59"
         inkscape:connector-curvature="0"
         style="clip-rule:evenodd;fill:#f0d4a8;fill-rule:evenodd;stroke:#000000;stroke-width:0.036;stroke-miterlimit:10" />
      <path
         sodipodi:nodetypes="cccssscccc"
         d="m 68.638124,141.1521 c -4.223865,-0.84102 -13.334978,-2.85581 -19.340996,-2.4574 -6.282125,0.15315 -12.642168,0.75982 -7.363642,9.6357 2.128022,2.97876 9.334261,0.83202 10.771189,2.36129 6.848048,7.28809 1.961594,9.93435 2.670913,13.0467 1.344453,5.89917 4.937755,-2.73055 1.374327,-14.60974 -1.029027,-3.43041 -12.274979,-2.51572 -12.468209,-7.29894 8.048469,-3.66018 25.363338,2.77157 29.714657,1.65647 4.38518,-1.13089 -1.152568,-1.51435 -5.35434,-2.32952 z"
         i:knockout="Off"
         id="path61"
         inkscape:connector-curvature="0"
         style="clip-rule:evenodd;fill:#000000;fill-opacity:1;fill-rule:evenodd" />
      <path
         d="m 87.22301,117.98063 c -2.741103,1.3017 -9.389368,1.72842 -12.453556,1.43525 -2.857078,-0.23183 -0.991076,-3.55054 -5.039966,-2.77953 -3.991131,1.08778 -15.491576,7.48835 -18.907273,8.4062 -3.382091,0.92763 1.314376,-2.57942 -1.266793,-2.9934 -2.594037,-0.23025 -14.291818,1.31359 -13.889822,0.8307 0.700562,-0.47095 10.967536,-1.8689 17.227683,-3.79591 6.308191,-1.83803 15.005852,-6.46742 19.658097,-7.25026 4.59187,-0.57544 4.503406,3.33469 7.544679,3.32019 3.203757,0.0713 9.561283,-3.47812 10.795564,-3.0813 1.207195,0.62223 -0.914748,4.6913 -3.669173,5.90998 z"
         i:knockout="Off"
         id="path63"
         inkscape:connector-curvature="0"
         style="clip-rule:evenodd;fill:#000000;fill-opacity:1;fill-rule:evenodd" />
      <path
         d="m 98.621,136.79 c 1.764,-3.132 8.172,-8.892 11.053,-9.36 2.699,-0.504 5.074,4.068 5.615,6.48 0.576,2.268 0,5.328 -2.557,7.38 -2.771,2.016 -11.484,5.148 -13.787,4.536 -2.4,-0.83 -2.185,-5.98 -0.312,-9.04 z"
         i:knockout="Off"
         id="path65"
         inkscape:connector-curvature="0"
         style="clip-rule:evenodd;fill:#000000;fill-opacity:1;fill-rule:evenodd" />
    </g>
    <g
       transform="matrix(0.52189965,-0.41072177,0.41072177,0.52189965,-35.740154,116.65826)"
       id="g4334">
      <path
         d="m 61.145,135.68 c -5.184,-3.24 -10.116,-5.148 -14.796,-5.724 -4.824,-0.648 -8.748,2.952 -13.428,2.052 -4.788,-0.972 -9.432,-3.096 -14.616,-7.92 C 13.049,119.084 1.493,107.24 1.961,102.308 2.465,97.34 8.693,94.712 21.077,94.424 16.685,89.096 16.433,83.192 20.465,76.712 c 4.14,-6.66 12.204,-17.856 24.48,-21.24 12.06,-3.312 35.387,-1.62 47.627,1.476 12.025,3.024 19.08,11.484 24.66,16.632 5.545,4.968 8.316,9.324 8.461,13.212 4.248,-0.972 7.02,-0.612 8.316,1.08 1.223,1.584 0.971,4.536 -0.756,8.712 6.768,3.6 8.891,8.28 6.803,13.896 -2.232,5.688 -8.82,12.132 -19.908,19.872 -3.924,-1.944 -8.82,-2.988 -15.084,-2.844 -6.408,-0.072 -16.596,2.124 -22.211,3.276 -5.58,1.188 -7.236,3.096 -10.801,3.924 -3.703,0.79 -7.195,1.11 -10.903,0.97 z"
         i:knockout="Off"
         stroke-miterlimit="10"
         id="path67"
         inkscape:connector-curvature="0"
         style="clip-rule:evenodd;fill-rule:evenodd;stroke:#000000;stroke-width:0.036;stroke-miterlimit:10" />
      <path
         d="m 24.137,95.643 c -3.096,-0.54 -6.12,-0.36 -9.216,0.396 -3.168,0.684 -8.028,2.412 -9.432,4.212 -1.548,1.836 -2.124,2.124 0.792,6.552 2.916,4.284 11.664,15.408 16.956,19.188 5.256,3.672 10.224,2.592 14.328,3.024 3.924,0.36 5.436,-1.62 9.54,-0.684 4.104,0.9 10.44,5.112 14.976,5.832 4.356,0.612 7.128,-1.08 11.521,-2.16 4.32,-1.296 8.783,-3.636 14.652,-4.788 5.867,-1.188 14.543,-2.052 20.051,-1.764 5.328,0.36 9.289,1.368 12.023,3.564 6.625,-4.752 11.449,-9.072 14.617,-13.104 3.168,-4.14 4.607,-7.812 4.176,-10.872 -0.541,-3.06 -2.916,-5.472 -7.271,-7.38 0.898,-2.052 1.223,-3.96 1.115,-5.436 -0.145,-1.548 -0.576,-3.276 -1.871,-3.816 -1.477,-0.72 -4.682,-1.044 -6.156,0.144 -1.477,1.188 -1.225,5.112 -2.449,7.2 -1.295,1.98 -5.219,6.3 -5.111,5.04 0.035,-1.404 4.932,-9.648 5.545,-13.068 0.574,-3.456 0.936,-3.852 -1.98,-7.596 -2.988,-3.924 -9.9,-11.376 -15.877,-15.264 C 98.947,60.903 94.05,58.491 84.691,56.943 75.078,55.395 59.13,52.767 48.798,55.719 38.502,58.635 27.81,67.599 23.67,74.403 19.499,81.1 19.751,88.048 24.143,95.644 Z"
         i:knockout="Off"
         stroke-miterlimit="10"
         id="path69"
         inkscape:connector-curvature="0"
         style="clip-rule:evenodd;fill:#ffabbc;fill-rule:evenodd;stroke:#000000;stroke-width:0.036;stroke-miterlimit:10" />
      <path
         sodipodi:nodetypes="cccccccccc"
         d="m 60.821,128.87 c -3.816,-1.368 -14.544,-10.368 -18.036,-11.304 -3.528,-0.9 -0.468,5.436 -2.772,5.832 -2.52,0.216 -7.2,-1.188 -11.412,-4.356 -4.284,-3.276 -13.428,-13.644 -13.248,-14.58 0.252,-1.008 11.844,9.036 14.796,8.748 2.808,-0.468 -3.78,-12.852 2.16,-10.908 5.832,2.052 27.972,18.108 32.832,22.752 4.68,4.33 -0.648,5.08 -4.32,3.82 z"
         i:knockout="Off"
         id="path71"
         inkscape:connector-curvature="0"
         style="clip-rule:evenodd;fill:#000000;fill-opacity:1;fill-rule:evenodd" />
      <path
         sodipodi:nodetypes="cccccccccsccc"
         d="m 76.553,70.731 c 2.881,-1.98 14.041,-4.356 20.016,-3.816 5.904,0.432 11.088,3.672 14.977,6.516 3.744,2.736 6.947,5.904 7.523,10.08 0.432,4.032 -3.779,10.836 -4.32,14.436 -0.539,3.492 4.537,2.988 1.08,6.804 -3.744,3.744 -21.203,16.416 -22.643,15.66 3.237427,-3.021 30.4918,-24.742257 14.328,-20.952 -11.589009,-0.741644 17.80614,-11.170907 5.34915,-23.176014 -1.08,-3.6 -11.91069,-4.83714 -16.767658,-6.665233 C 86.661869,66.067074 74.427274,73.676139 79.469,78.759 76.153,78.076 73.706,72.676 76.55,70.732 Z"
         i:knockout="Off"
         id="path73"
         inkscape:connector-curvature="0"
         style="clip-rule:evenodd;fill:#000000;fill-opacity:1;fill-rule:evenodd" />
      <path
         sodipodi:nodetypes="ccccccccc"
         d="m 128.79,99.459 c 2.557,0.252 8.316,5.796 7.703,9.396 -0.684,3.492 -7.307,9.288 -11.412,11.7 -4.248,2.232 -11.807,2.736 -13.535,2.052 -1.691,-0.72 1.64154,-0.17873 4.45054,-2.01473 16.07272,1.40194 22.1733,-13.52985 13.42902,-17.46852 0.936,-1.62 -8.55556,6.01925 -8.34056,4.07525 0.19,-2.02 5.12,-8.029 7.71,-7.741 z"
         i:knockout="Off"
         id="path75"
         inkscape:connector-curvature="0"
         style="clip-rule:evenodd;fill:#000000;fill-opacity:1;fill-rule:evenodd" />
      <path
         sodipodi:nodetypes="cccc"
         d="m 52.505,82.971 c -4.428,1.836 -18.756,10.296 -17.568,10.224 1.368,-0.252 22.104,-9.54 25.272,-11.196 2.88,-1.692 -3.528,-1.044 -7.704,0.972 z"
         i:knockout="Off"
         id="path77"
         inkscape:connector-curvature="0"
         style="clip-rule:evenodd;fill:#000000;fill-opacity:1;fill-rule:evenodd" />
      <path
         sodipodi:nodetypes="cccc"
         d="m 67.589,86.247 c -3.744,1.872 -15.876,10.404 -14.616,10.188 1.26,-0.252 19.476,-9.936 22.033,-11.556 2.267,-1.656 -3.673,-0.684 -7.417,1.368 z"
         i:knockout="Off"
         id="path79"
         inkscape:connector-curvature="0"
         style="clip-rule:evenodd;fill:#000000;fill-opacity:1;fill-rule:evenodd" />
      <path
         sodipodi:nodetypes="ccccc"
         d="m 84.545,90.315 c -2.629,1.692 -12.313,13.212 -11.557,13.752 0.756,0.396 13.5,-8.28 15.588,-10.62 1.836,-2.307 -1.402,-4.971 -4.031,-3.135 z"
         i:knockout="Off"
         id="path81"
         inkscape:connector-curvature="0"
         style="clip-rule:evenodd;fill:#000000;fill-opacity:1;fill-rule:evenodd" />
    </g>
    <g
       transform="matrix(-0.78705852,0.06341761,-0.05870316,-0.85026719,131.59312,195.20408)"
       id="g4324">
      <path
         d="M 59.201,81.891 C 54.017,78.651 49.085,76.743 44.405,76.167 39.581,75.519 35.657,79.119 30.977,78.219 26.225,77.247 21.473,75.123 16.325,70.299 11.033,65.295 -0.415,53.451 0.017,48.519 0.521,43.551 6.785,40.923 19.097,40.635 14.705,35.307 14.453,29.403 18.485,22.923 22.589,16.263 30.761,5.068 43.001,1.683 c 12.06,-3.312 35.388,-1.62 47.628,1.476 12.023,3.024 19.08,11.484 24.66,16.632 5.543,4.968 8.316,9.324 8.459,13.212 4.32,-0.972 7.057,-0.612 8.354,1.08 1.223,1.584 1.008,4.536 -0.793,8.712 6.66,3.6 8.965,8.28 6.768,13.896 -2.268,5.688 -8.748,12.132 -19.871,19.872 -3.924,-1.944 -8.82,-2.988 -15.084,-2.844 -6.408,-0.072 -16.596,2.124 -22.213,3.276 -5.436,1.188 -7.307,3.096 -10.763,3.924 -3.681,0.792 -7.281,1.116 -10.953,0.972 z"
         i:knockout="Off"
         stroke-miterlimit="10"
         id="path83"
         inkscape:connector-curvature="0"
         style="clip-rule:evenodd;fill-rule:evenodd;stroke:#000000;stroke-width:0.036;stroke-miterlimit:10" />
      <path
         d="m 22.193,41.859 c -3.06,-0.54 -6.192,-0.36 -9.252,0.396 -3.204,0.684 -7.956,2.412 -9.396,4.212 -1.548,1.836 -2.124,2.124 0.792,6.552 2.988,4.284 11.592,15.408 16.92,19.188 5.256,3.636 10.224,2.556 14.328,2.988 3.996,0.36 5.436,-1.62 9.576,-0.684 4.14,0.9 10.368,5.076 14.94,5.868 4.464,0.612 7.02,-1.08 11.556,-2.16 4.32,-1.296 8.785,-3.636 14.652,-4.788 5.725,-1.188 14.617,-2.052 20.016,-1.764 5.328,0.252 9.289,1.476 12.025,3.528 6.66,-4.752 11.412,-9.108 14.65,-13.068 3.168,-4.14 4.609,-7.812 4.178,-10.872 -0.541,-3.06 -2.953,-5.472 -7.236,-7.38 0.863,-2.052 1.115,-3.96 1.043,-5.436 -0.143,-1.548 -0.611,-3.276 -1.836,-3.816 -1.475,-0.72 -4.68,-1.044 -6.156,0.144 -1.439,1.152 -1.295,5.184 -2.482,7.236 -1.297,2.016 -5.256,6.228 -5.076,5.004 0.035,-1.439 4.932,-9.576 5.543,-13.032 0.576,-3.492 0.936,-3.96 -1.98,-7.668 C 116.012,22.347 109.1,15.003 103.123,11.079 96.967,7.119 92.18,4.707 82.783,3.159 73.207,1.611 57.151,-1.017 46.855,1.935 36.559,4.851 25.867,13.815 21.727,20.619 c -4.155,6.696 -3.903,13.644 0.489,21.24 z"
         i:knockout="Off"
         stroke-miterlimit="10"
         id="path85"
         inkscape:connector-curvature="0"
         style="clip-rule:evenodd;fill:#fff6d5;fill-rule:evenodd;stroke:#000000;stroke-width:0.036;stroke-miterlimit:10" />
      <path
         sodipodi:nodetypes="ccccccccc"
         d="m 58.877,75.087 c -6.041651,2.695636 -17.669141,-4.662058 -18.036,-11.304 -3.528,-0.9 -0.468,5.436 -2.772,5.832 -2.52,0.216 -7.2,-1.188 -11.412,-4.356 -4.284,-3.276 -13.428,-13.644 -13.248,-14.58 0.252,-1.008 11.844,9.036 14.796,8.748 4.443078,6.80993 5.874469,12.104266 8.667363,0.04012 C 49.863268,79.809538 59.735657,70.200455 63.197,71.271 c 4.68,4.32 -0.648,5.076 -4.32,3.816 z"
         i:knockout="Off"
         id="path87"
         inkscape:connector-curvature="0"
         style="clip-rule:evenodd;fill:#000000;fill-rule:evenodd" />
      <path
         sodipodi:nodetypes="ccccccccccsccc"
         d="m 74.609,16.947 c 2.879,-1.98 14.039,-4.356 20.016,-3.816 5.832,0.432 11.088,3.672 14.939,6.516 3.672,2.736 7.02,5.904 7.561,10.08 0.432,4.032 -3.779,10.836 -4.32,14.436 -0.539,3.492 4.537,2.988 1.08,6.804 -3.744,3.744 -21.203,16.416 -22.645,15.66 -1.332,-0.972 18.44881,-11.899455 19.88781,-16.003455 1.152,-4.14 -2.72979,-0.14792 -2.36879,-2.81192 0.359,-2.952 4.01419,-14.164545 3.22319,-17.764545 -1.08,-3.6 -12.387742,-11.717849 -17.058393,-13.979954 C 84.08368,10.816996 75.01557,20.86046 77.524,24.975 74.225,24.291 71.777,18.891 74.621,16.947 Z"
         i:knockout="Off"
         id="path89"
         inkscape:connector-curvature="0"
         style="clip-rule:evenodd;fill:#000000;fill-rule:evenodd" />
      <path
         sodipodi:nodetypes="cccccccc"
         d="m 126.85,45.675 c 2.555,0.252 8.314,5.796 7.703,9.396 -0.756,3.492 -7.199,9.288 -11.412,11.7 -4.211,2.232 -11.879,2.736 -13.572,2.052 -1.727,-0.72 10.33031,-2.984157 13.10231,-4.820157 9.98807,-1.861407 9.66838,-14.528069 0.22654,-14.144281 0.17,-2.016 1.34715,-4.471562 3.94715,-4.183562 z"
         i:knockout="Off"
         id="path91"
         inkscape:connector-curvature="0"
         style="clip-rule:evenodd;fill:#000000;fill-rule:evenodd" />
      <path
         sodipodi:nodetypes="cccc"
         d="m 50.561,29.187 c -4.428,1.836 -18.756,10.296 -17.568,10.224 1.368,-0.252 22.104,-9.54 25.272,-11.196 2.88,-1.692 -3.528,-1.044 -7.704,0.972 z"
         i:knockout="Off"
         id="path93"
         inkscape:connector-curvature="0"
         style="clip-rule:evenodd;fill:#000000;fill-rule:evenodd" />
      <path
         sodipodi:nodetypes="cccc"
         d="m 65.645,32.463 c -3.744,1.872 -15.876,10.404 -14.616,10.188 1.26,-0.252 19.476,-9.937 22.032,-11.556 2.267,-1.656 -3.672,-0.684 -7.416,1.368 z"
         i:knockout="Off"
         id="path95"
         inkscape:connector-curvature="0"
         style="clip-rule:evenodd;fill:#000000;fill-rule:evenodd" />
      <path
         sodipodi:nodetypes="cccc"
         d="M 82.602,36.531 C 79.9,38.223 70.397,49.743 71.045,50.283 c 0.792,0.396 13.428,-8.28 15.553,-10.62 1.836,-2.304 -1.442,-4.968 -3.996,-3.132 z"
         i:knockout="Off"
         id="path97"
         inkscape:connector-curvature="0"
         style="clip-rule:evenodd;fill:#000000;fill-rule:evenodd" />
    </g>
  </g>
  <metadata
     id="metadata99">
    <rdf:RDF>
      <cc:Work>
        <dc:format>image/svg+xml</dc:format>
        <dc:type
           rdf:resource="http://purl.org/dc/dcmitype/StillImage" />
        <cc:license
           rdf:resource="http://creativecommons.org/publicdomain/zero/1.0/" />
        <dc:publisher>
          <cc:Agent
             rdf:about="http://openclipart.org/">
            <dc:title>Openclipart</dc:title>
          </cc:Agent>
        </dc:publisher>
        <dc:title>Fast Food, Desserts, Ice Cream Cones, Waffle, Triple</dc:title>
        <dc:date>2007-11-13T23:42:44</dc:date>
        <dc:description>This Clip Art is part of a fast food menu set. Search for &quot;fastfood&quot; to find all.</dc:description>
        <dc:source>https://openclipart.org/detail/8315/fast-food-desserts-ice-cream-cones-waffle-triple-by-gerald_g</dc:source>
        <dc:creator>
          <cc:Agent>
            <dc:title>Gerald_G</dc:title>
          </cc:Agent>
        </dc:creator>
        <dc:subject>
          <rdf:Bag>
            <rdf:li>colouring book</rdf:li>
            <rdf:li>cone</rdf:li>
            <rdf:li>dessert</rdf:li>
            <rdf:li>dinner</rdf:li>
            <rdf:li>fastfood</rdf:li>
            <rdf:li>food</rdf:li>
            <rdf:li>icecream</rdf:li>
            <rdf:li>lunch</rdf:li>
            <rdf:li>menu</rdf:li>
            <rdf:li>waffle</rdf:li>
          </rdf:Bag>
        </dc:subject>
      </cc:Work>
      <cc:License
         rdf:about="http://creativecommons.org/publicdomain/zero/1.0/">
        <cc:permits
           rdf:resource="http://creativecommons.org/ns#Reproduction" />
        <cc:permits
           rdf:resource="http://creativecommons.org/ns#Distribution" />
        <cc:permits
           rdf:resource="http://creativecommons.org/ns#DerivativeWorks" />
      </cc:License>
    </rdf:RDF>
  </metadata>
</svg>
