<?xml version="1.0" encoding="UTF-8" standalone="no"?>
<!-- Created with Inkscape (http://www.inkscape.org/) -->

<svg
   xmlns:dc="http://purl.org/dc/elements/1.1/"
   xmlns:cc="http://creativecommons.org/ns#"
   xmlns:rdf="http://www.w3.org/1999/02/22-rdf-syntax-ns#"
   xmlns:svg="http://www.w3.org/2000/svg"
   xmlns="http://www.w3.org/2000/svg"
   xmlns:sodipodi="http://sodipodi.sourceforge.net/DTD/sodipodi-0.dtd"
   xmlns:inkscape="http://www.inkscape.org/namespaces/inkscape"
   width="130.02956mm"
   height="261.58157mm"
   viewBox="0 0 460.73462 926.86386"
   id="svg2"
   version="1.1"
   inkscape:version="0.91 r13725"
   sodipodi:docname="Icecream2.svg">
  <defs
     id="defs4" />
  <sodipodi:namedview
     id="base"
     pagecolor="#ffffff"
     bordercolor="#666666"
     borderopacity="1.0"
     inkscape:pageopacity="0.0"
     inkscape:pageshadow="2"
     inkscape:zoom="0.72286777"
     inkscape:cx="230.36732"
     inkscape:cy="463.43192"
     inkscape:document-units="px"
     inkscape:current-layer="layer1"
     showgrid="false"
     fit-margin-top="0"
     fit-margin-left="0"
     fit-margin-right="0"
     fit-margin-bottom="0"
     inkscape:window-width="1600"
     inkscape:window-height="837"
     inkscape:window-x="-8"
     inkscape:window-y="-8"
     inkscape:window-maximized="1" />
  <metadata
     id="metadata7">
    <rdf:RDF>
      <cc:Work
         rdf:about="">
        <dc:format>image/svg+xml</dc:format>
        <dc:type
           rdf:resource="http://purl.org/dc/dcmitype/StillImage" />
        <dc:title></dc:title>
      </cc:Work>
    </rdf:RDF>
  </metadata>
  <g
     inkscape:label="Layer 1"
     inkscape:groupmode="layer"
     id="layer1"
     transform="translate(541.46817,703.76897)">
    <g
       transform="matrix(1.25,0,0,1.25,-1051.3896,-702.76897)"
       id="g156212">
      <path
         inkscape:connector-curvature="0"
         style="opacity:1;fill:#020202;stroke:#020202;stroke-width:1.60000002;stroke-miterlimit:4;stroke-dasharray:none"
         id="path155959"
         d="m 681.53,0 6.01,0 c 26.38,20.56 52.91,41.68 83.38,56.03 9.94,4.72 2.46,16.79 -4.51,20.47 -28.05,16.99 -46.15,45.18 -71.16,65.81 6.75,23.54 16.15,46.09 27.63,67.76 13.12,30.34 -15.16,55.01 -17.58,83.98 -0.27,18.34 18.2,27.76 24.47,43.26 7.74,26.39 -11.68,55.45 -38.38,60.12 2.62,22.8 2.53,46.33 -5.97,67.99 -23.6,64.21 -46.44,128.69 -70.16,192.85 -10.54,26.65 -15.52,57.11 -34.81,79.27 -9.66,7.72 -17.55,-5.35 -19.56,-13.45 C 542.56,662.49 527.38,599.82 504.28,539.73 484.56,488 464.27,435.87 456.32,380.76 c -17.48,-4.29 -39.48,-10.12 -45.76,-29.45 -5.88,-16.11 3.27,-32.14 15.62,-42.14 8.73,-6.36 2.39,-16.73 -3.12,-22.59 -4.5,-15.77 6.48,-29.22 12.95,-42.54 9.56,-16.06 7.8,-35.85 16.85,-52.2 23.79,-50.61 74.27,-88.54 129.81,-96.27 17.22,0.16 33.65,-7.13 50.96,-3.85 15.97,-30.4 26.8,-64.47 47.9,-91.72 m -37.5,93 c 1.43,2.77 5.37,2.88 7.99,4.16 9.55,4.01 17.31,10.84 24.88,17.72 4.33,5.26 8.04,12.8 12.85,16.75 21.54,-26.38 46.73,-51.96 75.93,-68.52 C 739.42,44.42 709.81,29.02 682.76,10.87 674.54,40.24 659.03,66.7 644.03,93 m -81.92,18.94 c 3.92,7.95 1.63,20.12 -8.31,22.08 -18.99,3.08 -16.72,30.15 -35.91,33.94 11.28,-10.45 14.14,-28.27 29.28,-34.72 8.04,-2.51 11.26,-11.39 8.85,-18.92 -43.49,15.97 -82.3,49.24 -100.16,92.53 -7.78,15.85 4.5,32.86 0.15,48.83 -7.37,5.34 -19.14,5.54 -22.79,15.6 -8.02,16.06 3.41,33.68 2.03,49.66 -10.18,4.85 -18.93,16.83 -13.69,28.33 4.68,9.73 16.6,9.97 25.94,8.91 1.96,6.68 3.42,14.46 10.63,17.71 19.25,10.68 42.86,-4.58 61.94,7.09 25.4,14.33 55.32,8.55 81.89,1.02 19.06,-6.84 39.05,2.22 58.49,-2.62 13.2,8.13 33.17,10.69 43.99,-2.51 11.1,-10.89 16.18,-30.13 11.13,-45.4 -3.49,-14.85 -24.79,-21.99 -20.87,-38.65 4.5,-30.26 31.48,-57.93 17.08,-89.62 -11,-24.16 -20.48,-49.59 -37.64,-70.25 -4.74,12.97 -23.77,3.98 -29.4,-4.01 1.08,-0.95 2.12,-1.97 3.1,-3.03 5.42,6.3 17.95,13.83 24.41,5.09 -14.6,-16.2 -35.65,-28.36 -57.58,-29.53 -8.96,3.81 -20.16,8.75 -27.99,-0.27 -8.59,1.33 -16.68,5.2 -24.57,8.74 m -95.94,271.12 c 15.54,93.51 53.7,181.19 79.92,271.88 4.96,18.31 8.1,37.81 16.06,54.97 2.11,6.61 7.97,29.12 17.61,18.86 17.13,-25.6 24.86,-56.14 35.12,-84.88 25.06,-79.51 64.51,-156.18 69.18,-240.71 2.62,-6.68 -5.08,-5.7 -8.85,-6.25 -8.55,-1.68 -16.54,-5.44 -25.14,-6.87 -23.63,-11.01 -46.47,7.25 -69.11,12.91 -22.72,7.59 -47.23,2.76 -68.15,-7.76 -12.85,-8.99 -31.28,-9.51 -46.64,-12.15 z" />
      <path
         inkscape:connector-curvature="0"
         style="opacity:1;fill:#b65727;stroke:#b65727;stroke-width:1.60000002;stroke-miterlimit:4;stroke-dasharray:none"
         id="path155961"
         d="m 644.03,93 c 15,-26.3 30.51,-52.76 38.73,-82.13 27.05,18.15 56.66,33.55 82.92,52.24 -29.2,16.56 -54.39,42.14 -75.93,68.52 -4.81,-3.95 -8.52,-11.49 -12.85,-16.75 9,-19.8 30.27,-28.78 45.2,-42.89 -8.17,0.55 -17.1,5.59 -24.96,2.54 -0.4,-9.05 5.6,-16.65 6.94,-25.38 -12.12,8.33 -16.07,25.38 -25.24,35.88 -4.29,-7.15 -0.87,-18.81 -3.44,-27.32 -10.02,11.67 -13.4,28.2 -23.38,39.45 -2.62,-1.28 -6.56,-1.39 -7.99,-4.16 z" />
      <path
         inkscape:connector-curvature="0"
         style="opacity:1;fill:#9c460d;stroke:#9c460d;stroke-width:1.60000002;stroke-miterlimit:4;stroke-dasharray:none"
         id="path155963"
         d="m 678.84,85.03 c 9.17,-10.5 13.12,-27.55 25.24,-35.88 -1.34,8.73 -7.34,16.33 -6.94,25.38 7.86,3.05 16.79,-1.99 24.96,-2.54 C 707.17,86.1 685.9,95.08 676.9,114.88 669.33,108 661.57,101.17 652.02,97.16 662,85.91 665.38,69.38 675.4,57.71 c 2.57,8.51 -0.85,20.17 3.44,27.32 z" />
      <path
         inkscape:connector-curvature="0"
         style="opacity:1;fill:#e7287d;stroke:#e7287d;stroke-width:1.60000002;stroke-miterlimit:4;stroke-dasharray:none"
         id="path155983"
         d="m 562.11,111.94 c 7.89,-3.54 15.98,-7.41 24.57,-8.74 7.83,9.02 19.03,4.08 27.99,0.27 21.93,1.17 42.98,13.33 57.58,29.53 -6.46,8.74 -18.99,1.21 -24.41,-5.09 -6.6,-8.96 -30.51,-17.17 -27.82,2.28 -2.52,28.77 41.22,35.84 35.21,64.63 -5.51,9.42 -16.83,1.49 -21.41,-4.84 -8.41,-15.61 -7.43,-40.08 -26.09,-47.97 -17.16,-6.21 -17.37,18.18 -17.89,28.84 -0.19,12.77 -7.86,23.35 -13.6,34.17 -7.9,12.33 -15.7,24.81 -27.58,33.77 -10.39,11.92 4.72,25.88 0.4,38.88 -2.58,8.21 -19.16,9.9 -20.37,0.17 -2.2,-10.73 0.21,-21.68 4.76,-31.42 7.02,-15.88 8.25,-33.64 15.54,-49.4 4.68,-10.46 15.55,-17.85 17.46,-29.58 1.95,-4.31 -1.34,-10.6 -6.26,-10.17 -8.15,2.72 -9.98,12.19 -14.36,18.51 -9.32,6.78 -22.46,2.12 -31.65,9.39 -3.8,5.65 -9.41,10.94 -10.52,17.94 -1.33,2.03 -2.79,3.97 -4.43,5.75 -7.25,4.23 -13.2,14.13 -23.06,10.5 -14.27,-9.2 -1,-26.78 9.94,-32.3 5.67,-6.22 19.58,-9.49 22.71,-15.52 3.03,-1.19 6.07,-2.3 9.07,-3.58 19.19,-3.79 16.92,-30.86 35.91,-33.94 9.94,-1.96 12.23,-14.13 8.31,-22.08 z" />
      <path
         inkscape:connector-curvature="0"
         style="opacity:1;fill:#f1fa3f;stroke:#f1fa3f;stroke-width:1.60000002;stroke-miterlimit:4;stroke-dasharray:none"
         id="path155987"
         d="m 455.86,206.85 c 17.86,-43.29 56.67,-76.56 100.16,-92.53 2.41,7.53 -0.81,16.41 -8.85,18.92 -15.14,6.45 -18,24.27 -29.28,34.72 -3,1.28 -6.04,2.39 -9.07,3.58 -21.24,8.15 -49.56,20.07 -44.14,48.36 10.82,11.5 27.59,-0.87 34.55,-11.04 1.64,-1.78 3.1,-3.72 4.43,-5.75 4.52,-6.32 10.15,-11.9 17.38,-15.02 -3.92,16.38 -6.24,33.08 -6.83,49.92 -0.72,16.16 -20.3,21.5 -22.25,37.1 -3.51,13.51 11.96,22.01 14.91,33.79 -5.21,11.27 -13.64,23.93 -7.98,36.85 7.44,11.93 22.67,15.27 35.04,19.81 19.43,1.6 36.82,-8.62 54.34,-15.31 6.37,-0.27 8.46,8.64 14.66,9.9 33.35,8.61 66.3,22.56 101.51,18.72 -10.82,13.2 -30.79,10.64 -43.99,2.51 -19.44,4.84 -39.43,-4.22 -58.49,2.62 -26.57,7.53 -56.49,13.31 -81.89,-1.02 -19.08,-11.67 -42.69,3.59 -61.94,-7.09 -7.21,-3.25 -8.67,-11.03 -10.63,-17.71 -9.34,1.06 -21.26,0.82 -25.94,-8.91 -5.24,-11.5 3.51,-23.48 13.69,-28.33 1.38,-15.98 -10.05,-33.6 -2.03,-49.66 3.65,-10.06 15.42,-10.26 22.79,-15.6 4.35,-15.97 -7.93,-32.98 -0.15,-48.83 z" />
      <path
         inkscape:connector-curvature="0"
         style="opacity:1;fill:#140105;stroke:#140105;stroke-width:1.60000002;stroke-miterlimit:4;stroke-dasharray:none"
         id="path155991"
         d="m 620.02,130.19 c -2.69,-19.45 21.22,-11.24 27.82,-2.28 -0.98,1.06 -2.02,2.08 -3.1,3.03 -5.25,-4.12 -10.14,-11.75 -17.83,-9.52 -4.95,5.33 -5.37,14.64 -1.12,20.56 9.4,18.61 35.97,28.83 34.01,52.31 -4.47,12.29 -22.1,6.13 -26.89,-3.18 0.22,-0.28 0.68,-0.85 0.91,-1.13 4.58,6.33 15.9,14.26 21.41,4.84 6.01,-28.79 -37.73,-35.86 -35.21,-64.63 z" />
      <path
         inkscape:connector-curvature="0"
         style="opacity:1;fill:#fdfed4;stroke:#fdfed4;stroke-width:1.60000002;stroke-miterlimit:4;stroke-dasharray:none"
         id="path155993"
         d="m 626.91,121.42 c 7.69,-2.23 12.58,5.4 17.83,9.52 5.63,7.99 24.66,16.98 29.4,4.01 17.16,20.66 26.64,46.09 37.64,70.25 14.4,31.69 -12.58,59.36 -17.08,89.62 -3.92,16.66 17.38,23.8 20.87,38.65 5.05,15.27 -0.03,34.51 -11.13,45.4 -35.21,3.84 -68.16,-10.11 -101.51,-18.72 -6.2,-1.26 -8.29,-10.17 -14.66,-9.9 -17.52,6.69 -34.91,16.91 -54.34,15.31 -12.37,-4.54 -27.6,-7.88 -35.04,-19.81 -5.66,-12.92 2.77,-25.58 7.98,-36.85 -2.95,-11.78 -18.42,-20.28 -14.91,-33.79 1.95,-15.6 21.53,-20.94 22.25,-37.1 0.59,-16.84 2.91,-33.54 6.83,-49.92 10.79,-4.07 22.31,-6.9 30.69,-15.42 5.25,-4.32 7.9,2.65 5.2,7.06 -18.48,31.23 -37.42,66.75 -31.2,104.28 3.09,13.98 23.11,8.98 26.32,-2.2 2.65,-11.85 -1.8,-24.23 0.5,-36.06 7,-13.84 18.2,-25.03 25.74,-38.59 4.65,-7.39 8.33,-15.34 11.56,-23.43 16.91,10.51 50.07,9.38 46.08,36.9 -5.71,19.38 -19.96,39.4 -10.83,60.13 2.83,9.51 16.91,4.65 19.07,14.47 1.83,9.6 -2.29,19.86 1.19,29.25 5.91,9.05 24.46,12.61 28.7,0.27 3.69,-21.84 -18.15,-37.87 -17.79,-59.03 10.57,-18.08 36.25,-25.53 39.23,-48.52 4.18,-16.75 -11.9,-26.38 -22.09,-35.77 -3.19,-23.16 -23.51,-41.54 -47.62,-39.45 -4.25,-5.92 -3.83,-15.23 1.12,-20.56 z" />
      <path
         inkscape:connector-curvature="0"
         style="opacity:1;fill:#040102;stroke:#040102;stroke-width:1.60000002;stroke-miterlimit:4;stroke-dasharray:none"
         id="path155999"
         d="m 589.84,170.85 c 0.52,-10.66 0.73,-35.05 17.89,-28.84 18.66,7.89 17.68,32.36 26.09,47.97 -0.23,0.28 -0.69,0.85 -0.91,1.13 -11.77,-11.74 -16.9,-29.99 -31.2,-38.94 -10.81,1.38 -7.41,18.07 -10.84,25.79 -0.39,-2.37 -0.73,-4.74 -1.03,-7.11 z" />
      <path
         inkscape:connector-curvature="0"
         style="opacity:1;fill:#fffffe;stroke:#fffffe;stroke-width:1.60000002;stroke-miterlimit:4;stroke-dasharray:none"
         id="path156001"
         d="m 625.79,141.98 c 24.11,-2.09 44.43,16.29 47.62,39.45 10.19,9.39 26.27,19.02 22.09,35.77 -2.98,22.99 -28.66,30.44 -39.23,48.52 -0.36,21.16 21.48,37.19 17.79,59.03 -4.24,12.34 -22.79,8.78 -28.7,-0.27 -3.48,-9.39 0.64,-19.65 -1.19,-29.25 -2.16,-9.82 -16.24,-4.96 -19.07,-14.47 -9.13,-20.73 5.12,-40.75 10.83,-60.13 3.99,-27.52 -29.17,-26.39 -46.08,-36.9 0.36,-1.92 0.7,-3.85 1.02,-5.77 3.43,-7.72 0.03,-24.41 10.84,-25.79 14.3,8.95 19.43,27.2 31.2,38.94 4.79,9.31 22.42,15.47 26.89,3.18 1.96,-23.48 -24.61,-33.7 -34.01,-52.31 z" />
      <path
         inkscape:connector-curvature="0"
         style="opacity:1;fill:#090103;stroke:#090103;stroke-width:1.60000002;stroke-miterlimit:4;stroke-dasharray:none"
         id="path156011"
         d="m 560.19,157.27 c 4.92,-0.43 8.21,5.86 6.26,10.17 -1.91,11.73 -12.78,19.12 -17.46,29.58 -7.29,15.76 -8.52,33.52 -15.54,49.4 -4.55,9.74 -6.96,20.69 -4.76,31.42 1.21,9.73 17.79,8.04 20.37,-0.17 4.32,-13 -10.79,-26.96 -0.4,-38.88 11.88,-8.96 19.68,-21.44 27.58,-33.77 0.68,0.71 1.36,1.43 2.05,2.14 -7.54,13.56 -18.74,24.75 -25.74,38.59 -2.3,11.83 2.15,24.21 -0.5,36.06 -3.21,11.18 -23.23,16.18 -26.32,2.2 -6.22,-37.53 12.72,-73.05 31.2,-104.28 2.7,-4.41 0.05,-11.38 -5.2,-7.06 -8.38,8.52 -19.9,11.35 -30.69,15.42 -7.23,3.12 -12.86,8.7 -17.38,15.02 1.11,-7 6.72,-12.29 10.52,-17.94 9.19,-7.27 22.33,-2.61 31.65,-9.39 4.38,-6.32 6.21,-15.79 14.36,-18.51 z" />
      <path
         inkscape:connector-curvature="0"
         style="opacity:1;fill:#170102;stroke:#170102;stroke-width:1.60000002;stroke-miterlimit:4;stroke-dasharray:none"
         id="path156015"
         d="m 576.24,205.02 c 5.74,-10.82 13.41,-21.4 13.6,-34.17 0.3,2.37 0.64,4.74 1.03,7.11 -0.32,1.92 -0.66,3.85 -1.02,5.77 -3.23,8.09 -6.91,16.04 -11.56,23.43 -0.69,-0.71 -1.37,-1.43 -2.05,-2.14 z" />
      <path
         inkscape:connector-curvature="0"
         style="opacity:1;fill:#0b0302;stroke:#0b0302;stroke-width:1.60000002;stroke-miterlimit:4;stroke-dasharray:none"
         id="path156017"
         d="m 464.68,219.9 c -5.42,-28.29 22.9,-40.21 44.14,-48.36 -3.13,6.03 -17.04,9.3 -22.71,15.52 -10.94,5.52 -24.21,23.1 -9.94,32.3 9.86,3.63 15.81,-6.27 23.06,-10.5 -6.96,10.17 -23.73,22.54 -34.55,11.04 z" />
      <path
         inkscape:connector-curvature="0"
         style="opacity:1;fill:#f06c08;stroke:#f06c08;stroke-width:1.60000002;stroke-miterlimit:4;stroke-dasharray:none"
         id="path156053"
         d="m 466.17,383.06 c 15.36,2.64 33.79,3.16 46.64,12.15 l 0.31,0.69 c -4.15,-1.31 -10.31,-5.92 -13.64,-3.74 20,106.05 41.27,211.98 62.67,317.75 -7.96,-17.16 -11.1,-36.66 -16.06,-54.97 -26.22,-90.69 -64.38,-178.37 -79.92,-271.88 z" />
      <path
         inkscape:connector-curvature="0"
         style="opacity:1;fill:#c97b29;stroke:#c97b29;stroke-width:1.60000002;stroke-miterlimit:4;stroke-dasharray:none"
         id="path156055"
         d="m 580.96,402.97 c 22.64,-5.66 45.48,-23.92 69.11,-12.91 -15.79,-4.65 -31.81,-1.24 -45.99,6.15 -28.45,12.89 -63.44,17.79 -90.96,-0.31 l -0.31,-0.69 c 20.92,10.52 45.43,15.35 68.15,7.76 z" />
      <path
         inkscape:connector-curvature="0"
         style="opacity:1;fill:#ff9400;stroke:#ff9400;stroke-width:1.60000002;stroke-miterlimit:4;stroke-dasharray:none"
         id="path156057"
         d="m 604.08,396.21 c 14.18,-7.39 30.2,-10.8 45.99,-6.15 8.6,1.43 16.59,5.19 25.14,6.87 0.3,4.81 -0.16,9.65 -2.11,14.11 -33,94.41 -64.33,189.39 -97.38,283.77 -0.42,-0.08 -1.25,-0.23 -1.66,-0.3 9.4,-99.49 20.26,-198.83 30.02,-298.3 z" />
      <path
         inkscape:connector-curvature="0"
         style="opacity:1;fill:#fe7e00;stroke:#fe7e00;stroke-width:1.60000002;stroke-miterlimit:4;stroke-dasharray:none"
         id="path156059"
         d="m 499.48,392.16 c 3.33,-2.18 9.49,2.43 13.64,3.74 27.52,18.1 62.51,13.2 90.96,0.31 -9.76,99.47 -20.62,198.81 -30.02,298.3 0.41,0.07 1.24,0.22 1.66,0.3 33.05,-94.38 64.38,-189.36 97.38,-283.77 1.95,-4.46 2.41,-9.3 2.11,-14.11 3.77,0.55 11.47,-0.43 8.85,6.25 -4.67,84.53 -44.12,161.2 -69.18,240.71 -10.26,28.74 -17.99,59.28 -35.12,84.88 -9.64,10.26 -15.5,-12.25 -17.61,-18.86 -21.4,-105.77 -42.67,-211.7 -62.67,-317.75 z" />
    </g>
  </g>
</svg>
